<svg width="156" height="40" viewBox="0 0 156 40" fill="none" xmlns="http://www.w3.org/2000/svg">
<path d="M143.577 0.00013H12.4299C11.9518 0.00013 11.4795 0.00013 11.0027 0.00212999C10.6036 0.00412999 10.2077 0.00993997 9.80475 0.01483C8.92936 0.0227317 8.05604 0.081806 7.19236 0.191539C6.3299 0.303662 5.49446 0.515044 4.71428 0.818537C3.93507 1.1246 3.22307 1.52229 2.60413 1.99719C1.98194 2.47076 1.4633 3.01814 1.06815 3.61828C0.671901 4.21723 0.397144 4.85905 0.253364 5.52159C0.108217 6.1833 0.0301122 6.85263 0.0197503 7.52359C0.00765242 7.83018 0.00637485 8.1378 0 8.44444V31.5586C0.00637485 31.8691 0.00765242 32.1699 0.0197503 32.4805C0.0301154 33.1514 0.10822 33.8207 0.253364 34.4824C0.396747 35.1453 0.67152 35.7875 1.06815 36.3867C1.46312 36.9849 1.98184 37.5301 2.60413 38.001C3.22072 38.478 3.93318 38.876 4.71428 39.1797C5.49445 39.484 6.3298 39.6967 7.19236 39.8105C8.05619 39.9194 8.92942 39.9785 9.80475 39.9873C10.2077 39.9941 10.6036 39.998 11.0027 39.998C11.4795 40 11.9519 40 12.4299 40H143.577C144.046 40 144.522 40 144.99 39.998C145.388 39.998 145.795 39.9941 146.192 39.9873C147.066 39.9789 147.937 39.9198 148.799 39.8105C149.665 39.6959 150.503 39.4833 151.287 39.1797C152.067 38.8758 152.779 38.4779 153.395 38.001C154.016 37.5282 154.536 36.9835 154.936 36.3867C155.329 35.7871 155.602 35.145 155.743 34.4824C155.888 33.8207 155.969 33.1515 155.985 32.4805C155.99 32.1699 155.99 31.8691 155.99 31.5586C156 31.1953 156 30.834 156 30.4648V9.53623C156 9.17002 156 8.80674 155.99 8.44444C155.99 8.1378 155.99 7.83018 155.985 7.52355C155.969 6.85253 155.888 6.18335 155.743 5.52155C155.601 4.8594 155.329 4.21762 154.936 3.61824C154.131 2.41532 152.855 1.43615 151.287 0.818447C150.503 0.515696 149.665 0.304369 148.799 0.191449C147.938 0.0812325 147.066 0.0221377 146.192 0.01469C145.795 0.00980997 145.388 0.00394999 144.99 0.00199999C144.522 0 144.046 0 143.577 0V0.00013Z" fill="#A6A6A6"/>
<path d="M11.0794 38.998C10.6826 38.998 10.2954 38.9941 9.90175 38.9874C9.08624 38.9793 8.27263 38.9251 7.4676 38.8254C6.71696 38.7267 5.98978 38.5433 5.31006 38.2811C4.63658 38.021 4.0223 37.68 3.49078 37.2712C2.95155 36.8671 2.50263 36.3985 2.16178 35.8839C1.81719 35.3659 1.5787 34.8107 1.45465 34.2376C1.32067 33.6218 1.24819 32.9991 1.23782 32.3749C1.22956 32.1654 1.21875 31.4679 1.21875 31.4679V8.51947C1.21875 8.51947 1.23026 7.83262 1.23788 7.63083C1.24781 7.00764 1.31988 6.38594 1.45345 5.77109C1.57774 5.19642 1.8164 4.63961 2.16119 4.11994C2.50077 3.60566 2.94721 3.13669 3.48318 2.7312C4.01855 2.32186 4.63479 1.97911 5.30942 1.71547C5.98758 1.45408 6.71338 1.27193 7.46251 1.17511C8.27018 1.07434 9.08661 1.01986 9.90495 1.01213L11.08 1H144.914L146.103 1.01262C146.914 1.01997 147.723 1.07396 148.523 1.17414C149.28 1.27217 150.013 1.45559 150.699 1.71838C152.05 2.2497 153.15 3.0903 153.844 4.12236C154.183 4.63845 154.418 5.19072 154.541 5.76042C154.676 6.38031 154.752 7.0069 154.767 7.6352C154.771 7.91653 154.771 8.21873 154.771 8.51947C154.781 8.892 154.781 9.24658 154.781 9.60407V30.3949C154.781 30.7558 154.781 31.1079 154.771 31.463C154.771 31.786 154.771 32.082 154.766 32.3866C154.751 33.0036 154.676 33.619 154.543 34.2278C154.422 34.8051 154.185 35.3646 153.84 35.8868C153.497 36.3959 153.05 36.8605 152.517 37.2634C151.985 37.6745 151.37 38.0175 150.695 38.2792C150.011 38.5434 149.279 38.7275 148.523 38.8254C147.718 38.9257 146.904 38.9798 146.089 38.9874C145.707 38.9941 145.308 38.998 144.92 38.998L143.508 39L11.0794 38.998Z" fill="black"/>
<path d="M24.769 20.3003C24.7797 19.4657 25.0014 18.6473 25.4135 17.9213C25.8255 17.1954 26.4145 16.5854 27.1256 16.1483C26.6738 15.5031 26.0779 14.9722 25.385 14.5976C24.6922 14.2231 23.9216 14.0152 23.1344 13.9906C21.4552 13.8143 19.8272 14.9954 18.9715 14.9954C18.0992 14.9954 16.7817 14.0081 15.363 14.0373C14.4453 14.0669 13.551 14.3338 12.7671 14.8118C11.9832 15.2899 11.3365 15.9629 10.8901 16.7651C8.95607 20.1136 10.3987 25.0346 12.2513 27.7412C13.1782 29.0666 14.2615 30.547 15.6789 30.4945C17.066 30.437 17.584 29.61 19.2583 29.61C20.9171 29.61 21.4031 30.4945 22.8493 30.4611C24.3377 30.437 25.2754 29.1299 26.1698 27.792C26.8358 26.8476 27.3483 25.8039 27.6882 24.6995C26.8235 24.3338 26.0856 23.7216 25.5665 22.9393C25.0474 22.157 24.77 21.2392 24.769 20.3003Z" fill="white"/>
<path d="M22.0376 12.2113C22.8491 11.2371 23.2489 9.98494 23.1521 8.7207C21.9123 8.85092 20.767 9.44348 19.9445 10.3803C19.5424 10.838 19.2344 11.3704 19.0381 11.9472C18.8419 12.524 18.7612 13.1337 18.8008 13.7417C19.4209 13.7481 20.0344 13.6137 20.5951 13.3486C21.1558 13.0835 21.649 12.6946 22.0376 12.2113Z" fill="white"/>
<path d="M42.3022 27.1397H37.5688L36.4321 30.4961H34.4272L38.9106 18.0781H40.9936L45.477 30.4961H43.438L42.3022 27.1397ZM38.0591 25.5908H41.8111L39.9615 20.1436H39.9097L38.0591 25.5908Z" fill="white"/>
<path d="M55.1597 25.9695C55.1597 28.7829 53.6538 30.5905 51.3814 30.5905C50.8057 30.6207 50.2332 30.4881 49.7294 30.2079C49.2256 29.9278 48.8109 29.5114 48.5327 29.0065H48.4897V33.4909H46.6313V21.4421H48.4302V22.948H48.4644C48.7553 22.4455 49.1771 22.0313 49.6847 21.7495C50.1923 21.4676 50.7669 21.3287 51.3472 21.3474C53.645 21.3474 55.1597 23.1638 55.1597 25.9695ZM53.2495 25.9695C53.2495 24.1365 52.3023 22.9314 50.857 22.9314C49.437 22.9314 48.482 24.1618 48.482 25.9695C48.482 27.7937 49.437 29.0154 50.857 29.0154C52.3023 29.0154 53.2495 27.8191 53.2495 25.9695Z" fill="white"/>
<path d="M65.1245 25.9694C65.1245 28.7829 63.6187 30.5905 61.3462 30.5905C60.7706 30.6206 60.1981 30.488 59.6943 30.2079C59.1905 29.9278 58.7758 29.5114 58.4976 29.0065H58.4546V33.4909H56.5962V21.4421H58.395V22.948H58.4292C58.7201 22.4455 59.1419 22.0313 59.6495 21.7495C60.1571 21.4676 60.7317 21.3287 61.312 21.3474C63.6099 21.3474 65.1245 23.1638 65.1245 25.9694ZM63.2144 25.9694C63.2144 24.1364 62.2671 22.9314 60.8218 22.9314C59.4019 22.9314 58.4468 24.1618 58.4468 25.9694C58.4468 27.7937 59.4019 29.0153 60.8218 29.0153C62.2671 29.0153 63.2144 27.8191 63.2144 25.9694H63.2144Z" fill="white"/>
<path d="M71.7105 27.0362C71.8482 28.2676 73.0445 29.0762 74.6792 29.0762C76.2456 29.0762 77.3726 28.2676 77.3726 27.1572C77.3726 26.1934 76.6929 25.6162 75.0835 25.2207L73.4742 24.833C71.1939 24.2822 70.1353 23.2158 70.1353 21.4854C70.1353 19.3428 72.0025 17.8711 74.6538 17.8711C77.2778 17.8711 79.0767 19.3428 79.1372 21.4854H77.2612C77.1489 20.2461 76.1245 19.4981 74.6274 19.4981C73.1304 19.4981 72.106 20.2549 72.106 21.3565C72.106 22.2344 72.7603 22.751 74.3608 23.1465L75.729 23.4824C78.2769 24.0849 79.3355 25.1084 79.3355 26.9248C79.3355 29.248 77.4849 30.7031 74.5415 30.7031C71.7876 30.7031 69.9282 29.2822 69.8081 27.0361L71.7105 27.0362Z" fill="white"/>
<path d="M83.3462 19.3008V21.4434H85.0679V22.915H83.3462V27.9062C83.3462 28.6816 83.6909 29.043 84.4477 29.043C84.6521 29.0394 84.8562 29.0251 85.0591 29V30.4629C84.7188 30.5264 84.3729 30.5552 84.0268 30.5488C82.1938 30.5488 81.479 29.8603 81.479 28.1045V22.915H80.1626V21.4434H81.479V19.3008H83.3462Z" fill="white"/>
<path d="M86.0649 25.9707C86.0649 23.1221 87.7427 21.332 90.3589 21.332C92.9839 21.332 94.6538 23.122 94.6538 25.9707C94.6538 28.8272 92.9927 30.6094 90.3589 30.6094C87.726 30.6094 86.0649 28.8271 86.0649 25.9707ZM92.7602 25.9707C92.7602 24.0166 91.8647 22.8633 90.3589 22.8633C88.853 22.8633 87.9585 24.0254 87.9585 25.9707C87.9585 27.9326 88.853 29.0772 90.3589 29.0772C91.8647 29.0772 92.7602 27.9326 92.7602 25.9707H92.7602Z" fill="white"/>
<path d="M96.186 21.442H97.9585V22.983H98.0015C98.1214 22.5017 98.4034 22.0764 98.8 21.7785C99.1966 21.4806 99.6836 21.3284 100.179 21.3473C100.393 21.3465 100.607 21.3698 100.816 21.4166V23.1549C100.546 23.0723 100.264 23.0343 99.981 23.0426C99.711 23.0316 99.4418 23.0792 99.192 23.1821C98.9421 23.285 98.7175 23.4408 98.5335 23.6386C98.3496 23.8365 98.2106 24.0719 98.1262 24.3286C98.0417 24.5852 98.0139 24.8571 98.0444 25.1256V30.4957H96.186L96.186 21.442Z" fill="white"/>
<path d="M109.384 27.8379C109.134 29.4814 107.534 30.6094 105.486 30.6094C102.852 30.6094 101.217 28.8447 101.217 26.0137C101.217 23.1738 102.861 21.332 105.408 21.332C107.913 21.332 109.488 23.0527 109.488 25.7978V26.4346H103.093V26.5469C103.064 26.8801 103.105 27.2157 103.216 27.5316C103.326 27.8474 103.502 28.1362 103.732 28.3787C103.963 28.6213 104.242 28.8121 104.552 28.9384C104.861 29.0647 105.195 29.1236 105.529 29.1113C105.968 29.1525 106.409 29.0508 106.785 28.8213C107.162 28.5919 107.455 28.247 107.62 27.8379L109.384 27.8379ZM103.102 25.1357H107.628C107.645 24.8361 107.6 24.5363 107.495 24.2551C107.39 23.9739 107.229 23.7174 107.02 23.5016C106.812 23.2858 106.561 23.1155 106.283 23.0013C106.006 22.8871 105.708 22.8314 105.408 22.8379C105.105 22.8361 104.805 22.8942 104.525 23.009C104.245 23.1237 103.99 23.2928 103.776 23.5064C103.562 23.72 103.392 23.974 103.276 24.2537C103.16 24.5333 103.101 24.8331 103.102 25.1357V25.1357Z" fill="white"/>
<path d="M37.8262 8.73138C38.2158 8.70342 38.6067 8.76228 38.9709 8.90371C39.335 9.04515 39.6632 9.26563 39.9317 9.54925C40.2003 9.83288 40.4026 10.1726 40.524 10.5438C40.6454 10.9151 40.6829 11.3087 40.6338 11.6962C40.6338 13.6025 39.6035 14.6982 37.8262 14.6982H35.6709V8.73138H37.8262ZM36.5976 13.8544H37.7226C38.0011 13.871 38.2797 13.8254 38.5382 13.7208C38.7967 13.6161 39.0287 13.4552 39.2172 13.2496C39.4057 13.0441 39.546 12.7991 39.6278 12.5324C39.7097 12.2658 39.7311 11.9843 39.6904 11.7084C39.7281 11.4335 39.7046 11.1538 39.6215 10.8891C39.5383 10.6244 39.3977 10.3814 39.2096 10.1775C39.0216 9.97358 38.7907 9.81378 38.5337 9.70954C38.2766 9.6053 37.9996 9.55922 37.7226 9.57459H36.5976V13.8544Z" fill="white"/>
<path d="M41.6805 12.4458C41.6521 12.1498 41.686 11.8513 41.7798 11.5692C41.8737 11.2871 42.0254 11.0278 42.2254 10.8078C42.4253 10.5878 42.669 10.4121 42.9409 10.2918C43.2127 10.1715 43.5067 10.1094 43.804 10.1094C44.1013 10.1094 44.3952 10.1715 44.6671 10.2918C44.939 10.4121 45.1827 10.5878 45.3826 10.8078C45.5825 11.0278 45.7343 11.2871 45.8281 11.5692C45.922 11.8513 45.9558 12.1498 45.9275 12.4458C45.9564 12.742 45.9229 13.041 45.8293 13.3235C45.7357 13.606 45.5841 13.8658 45.3841 14.0862C45.1841 14.3067 44.9402 14.4828 44.6681 14.6033C44.3959 14.7239 44.1016 14.7861 43.804 14.7861C43.5064 14.7861 43.212 14.7239 42.9399 14.6033C42.6678 14.4828 42.4239 14.3067 42.2239 14.0862C42.0239 13.8658 41.8722 13.606 41.7786 13.3235C41.6851 13.041 41.6516 12.742 41.6805 12.4458ZM45.0135 12.4458C45.0135 11.4697 44.575 10.8989 43.8055 10.8989C43.033 10.8989 42.5985 11.4697 42.5985 12.4458C42.5985 13.4297 43.033 13.9961 43.8055 13.9961C44.575 13.996 45.0135 13.4257 45.0135 12.4458H45.0135Z" fill="white"/>
<path d="M51.5732 14.6982H50.6514L49.7207 11.3818H49.6504L48.7236 14.6982H47.8105L46.5693 10.1953H47.4707L48.2773 13.6313H48.3438L49.2695 10.1953H50.1221L51.0479 13.6313H51.1182L51.9209 10.1953H52.8096L51.5732 14.6982Z" fill="white"/>
<path d="M53.8535 10.1949H54.709V10.9102H54.7754C54.888 10.6533 55.0781 10.4379 55.3189 10.2941C55.5598 10.1503 55.8395 10.0852 56.1191 10.1079C56.3382 10.0915 56.5582 10.1245 56.7628 10.2046C56.9674 10.2847 57.1514 10.4098 57.3011 10.5707C57.4508 10.7315 57.5623 10.924 57.6275 11.1338C57.6927 11.3436 57.7099 11.5654 57.6777 11.7827V14.6977H56.7891V12.0059C56.7891 11.2823 56.4746 10.9224 55.8174 10.9224C55.6686 10.9155 55.5201 10.9408 55.3821 10.9966C55.244 11.0525 55.1197 11.1375 55.0175 11.2459C54.9154 11.3543 54.8379 11.4834 54.7904 11.6246C54.7429 11.7657 54.7264 11.9154 54.7422 12.0635V14.6978H53.8535L53.8535 10.1949Z" fill="white"/>
<path d="M59.0938 8.4375H59.9824V14.6982H59.0938V8.4375Z" fill="white"/>
<path d="M61.2175 12.4439C61.1893 12.1479 61.2231 11.8494 61.317 11.5673C61.4109 11.2852 61.5626 11.0259 61.7626 10.8059C61.9626 10.5859 62.2063 10.4101 62.4782 10.2898C62.75 10.1696 63.044 10.1074 63.3413 10.1074C63.6386 10.1074 63.9326 10.1696 64.2045 10.2898C64.4764 10.4101 64.7201 10.5859 64.92 10.8059C65.12 11.0259 65.2718 11.2852 65.3656 11.5673C65.4595 11.8494 65.4934 12.1479 65.4651 12.4439C65.4939 12.7401 65.4604 13.0391 65.3668 13.3216C65.2732 13.6042 65.1215 13.864 64.9215 14.0844C64.7215 14.3048 64.4776 14.4809 64.2054 14.6014C63.9333 14.722 63.639 14.7842 63.3413 14.7842C63.0437 14.7842 62.7493 14.722 62.4772 14.6014C62.2051 14.4809 61.9612 14.3048 61.7612 14.0844C61.5611 13.864 61.4095 13.6042 61.3158 13.3216C61.2222 13.0391 61.1887 12.7401 61.2175 12.4439ZM64.5505 12.4439C64.5505 11.4678 64.1121 10.897 63.3425 10.897C62.5701 10.897 62.1355 11.4678 62.1355 12.4439C62.1355 13.4278 62.5701 13.9942 63.3425 13.9942C64.1121 13.9942 64.5505 13.4239 64.5505 12.4439H64.5505Z" fill="white"/>
<path d="M66.4009 13.4258C66.4009 12.6152 67.0044 12.1479 68.0757 12.0815L69.2954 12.0112V11.6226C69.2954 11.147 68.981 10.8784 68.3735 10.8784C67.8774 10.8784 67.5337 11.0605 67.4351 11.3789H66.5747C66.6655 10.6055 67.3931 10.1094 68.4146 10.1094C69.5435 10.1094 70.1802 10.6714 70.1802 11.6226V14.6992H69.3247V14.0664H69.2544C69.1117 14.2934 68.9113 14.4784 68.6737 14.6027C68.436 14.7269 68.1697 14.7858 67.9019 14.7734C67.7128 14.7931 67.5218 14.7729 67.341 14.7142C67.1602 14.6555 66.9938 14.5596 66.8524 14.4326C66.711 14.3056 66.5977 14.1504 66.52 13.977C66.4422 13.8036 66.4016 13.6158 66.4009 13.4258ZM69.2954 13.041V12.6645L68.1958 12.7349C67.5757 12.7764 67.2944 12.9873 67.2944 13.3843C67.2944 13.7895 67.646 14.0254 68.1294 14.0254C68.2711 14.0397 68.4142 14.0254 68.5502 13.9833C68.6862 13.9412 68.8123 13.8722 68.9211 13.7804C69.0299 13.6885 69.1191 13.5757 69.1834 13.4487C69.2477 13.3217 69.2858 13.183 69.2954 13.041Z" fill="white"/>
<path d="M71.3481 12.4448C71.3481 11.022 72.0796 10.1206 73.2173 10.1206C73.4987 10.1077 73.778 10.1751 74.0225 10.315C74.267 10.4548 74.4667 10.6615 74.5981 10.9106H74.6646V8.4375H75.5532V14.6982H74.7017V13.9868H74.6314C74.4897 14.2343 74.2831 14.4383 74.0339 14.5768C73.7846 14.7153 73.5022 14.783 73.2173 14.7724C72.0718 14.7725 71.3481 13.8711 71.3481 12.4448ZM72.2661 12.4448C72.2661 13.3999 72.7163 13.9746 73.4693 13.9746C74.2183 13.9746 74.6812 13.3916 74.6812 12.4487C74.6812 11.5103 74.2134 10.919 73.4693 10.919C72.7212 10.919 72.2661 11.4976 72.2661 12.4448H72.2661Z" fill="white"/>
<path d="M79.2298 12.4458C79.2015 12.1498 79.2353 11.8513 79.3292 11.5692C79.423 11.2871 79.5748 11.0278 79.7747 10.8078C79.9746 10.5878 80.2183 10.4121 80.4902 10.2918C80.762 10.1715 81.056 10.1094 81.3533 10.1094C81.6506 10.1094 81.9446 10.1715 82.2164 10.2918C82.4883 10.4121 82.732 10.5878 82.9319 10.8078C83.1319 11.0278 83.2836 11.2871 83.3775 11.5692C83.4713 11.8513 83.5052 12.1498 83.4768 12.4458C83.5057 12.742 83.4722 13.041 83.3786 13.3235C83.2851 13.606 83.1334 13.8658 82.9334 14.0862C82.7334 14.3067 82.4895 14.4828 82.2174 14.6033C81.9453 14.7239 81.6509 14.7861 81.3533 14.7861C81.0557 14.7861 80.7613 14.7239 80.4892 14.6033C80.2171 14.4828 79.9732 14.3067 79.7732 14.0862C79.5732 13.8658 79.4216 13.606 79.328 13.3235C79.2344 13.041 79.2009 12.742 79.2298 12.4458ZM82.5628 12.4458C82.5628 11.4697 82.1243 10.8989 81.3548 10.8989C80.5823 10.8989 80.1478 11.4697 80.1478 12.4458C80.1478 13.4297 80.5823 13.9961 81.3548 13.9961C82.1243 13.996 82.5628 13.4257 82.5628 12.4458Z" fill="white"/>
<path d="M84.6694 10.1949H85.5249V10.9102H85.5913C85.704 10.6533 85.894 10.4379 86.1348 10.2941C86.3757 10.1503 86.6555 10.0852 86.9351 10.1079C87.1542 10.0915 87.3742 10.1245 87.5788 10.2046C87.7834 10.2847 87.9673 10.4098 88.117 10.5707C88.2667 10.7315 88.3783 10.924 88.4435 11.1338C88.5087 11.3436 88.5258 11.5654 88.4937 11.7827V14.6977H87.605V12.0059C87.605 11.2823 87.2905 10.9224 86.6333 10.9224C86.4846 10.9155 86.336 10.9408 86.198 10.9966C86.0599 11.0525 85.9356 11.1375 85.8335 11.2459C85.7313 11.3543 85.6539 11.4834 85.6063 11.6246C85.5588 11.7657 85.5423 11.9154 85.5581 12.0635V14.6978H84.6694V10.1949Z" fill="white"/>
<path d="M93.5151 9.07422V10.2158H94.4907V10.9644H93.5151V13.2798C93.5151 13.7515 93.7095 13.958 94.1519 13.958C94.2651 13.9576 94.3783 13.9508 94.4907 13.9375V14.6777C94.3311 14.7063 94.1694 14.7215 94.0073 14.7231C93.019 14.7231 92.6255 14.3755 92.6255 13.5073V10.9643H91.9106V10.2158H92.6255V9.07422H93.5151Z" fill="white"/>
<path d="M95.7046 8.4375H96.5854V10.919H96.6558C96.7739 10.6596 96.9691 10.443 97.2148 10.2987C97.4605 10.1543 97.7447 10.0893 98.0288 10.1123C98.2467 10.1004 98.4646 10.1368 98.6669 10.2189C98.8692 10.3009 99.0508 10.4266 99.199 10.5869C99.3471 10.7473 99.458 10.9383 99.5238 11.1465C99.5896 11.3546 99.6086 11.5747 99.5795 11.791V14.6982H98.69V12.0103C98.69 11.291 98.355 10.9268 97.7271 10.9268C97.5743 10.9142 97.4207 10.9352 97.2769 10.9883C97.1332 11.0413 97.0027 11.1252 96.8947 11.2339C96.7867 11.3426 96.7038 11.4737 96.6517 11.6178C96.5997 11.7619 96.5797 11.9157 96.5933 12.0683V14.6982H95.7046L95.7046 8.4375Z" fill="white"/>
<path d="M104.761 13.4815C104.641 13.8931 104.379 14.249 104.022 14.4872C103.666 14.7253 103.237 14.8305 102.81 14.7842C102.514 14.7921 102.219 14.7353 101.946 14.6177C101.674 14.5002 101.43 14.3248 101.232 14.1036C101.034 13.8825 100.887 13.6209 100.8 13.3371C100.713 13.0533 100.69 12.754 100.73 12.46C100.691 12.1652 100.715 11.8652 100.801 11.5805C100.888 11.2959 101.035 11.0331 101.231 10.81C101.428 10.587 101.671 10.4088 101.943 10.2876C102.214 10.1664 102.509 10.105 102.806 10.1075C104.059 10.1075 104.815 10.9635 104.815 12.3775V12.6876H101.635V12.7374C101.621 12.9026 101.642 13.069 101.696 13.2257C101.751 13.3825 101.837 13.5262 101.95 13.6476C102.063 13.7691 102.2 13.8656 102.352 13.931C102.504 13.9964 102.669 14.0292 102.835 14.0274C103.047 14.0529 103.263 14.0146 103.453 13.9174C103.644 13.8202 103.802 13.6685 103.906 13.4815L104.761 13.4815ZM101.635 12.0303H103.91C103.921 11.8792 103.9 11.7274 103.85 11.5847C103.799 11.442 103.718 11.3115 103.614 11.2016C103.51 11.0918 103.383 11.005 103.243 10.9468C103.103 10.8886 102.953 10.8604 102.801 10.8638C102.648 10.8619 102.495 10.8908 102.353 10.9487C102.21 11.0067 102.081 11.0925 101.972 11.2012C101.864 11.3099 101.778 11.4393 101.72 11.5817C101.662 11.7241 101.633 11.8766 101.635 12.0303H101.635Z" fill="white"/>
</svg>
