<svg width="156" height="40" viewBox="0 0 156 40" fill="none" xmlns="http://www.w3.org/2000/svg">
<path d="M150.231 0H5.76852C2.58265 0 0 2.23485 0 4.99168V35.0083C0 37.7651 2.58265 40 5.76852 40H150.231C153.417 40 156 37.7651 156 35.0083V4.99168C156 2.23485 153.417 0 150.231 0Z" fill="black"/>
<path d="M150.231 0.798669C151.516 0.798669 152.749 1.24043 153.658 2.02677C154.566 2.81312 155.077 3.87962 155.077 4.99168V34.9418C155.077 36.0538 154.566 37.1203 153.658 37.9067C152.749 38.693 151.516 39.1348 150.231 39.1348H5.78756C4.51237 39.1348 3.28855 38.6999 2.38147 37.9244C1.47439 37.1488 0.957187 36.0951 0.942006 34.9917V5.0416C0.934373 4.48678 1.05407 3.93616 1.29416 3.42167C1.53425 2.90717 1.88997 2.43903 2.34068 2.04437C2.79139 1.64971 3.32815 1.33638 3.91983 1.12255C4.51151 0.908717 5.14635 0.79863 5.78756 0.798669H150.231ZM150.231 0H5.78756C4.25766 0 2.79041 0.525908 1.7086 1.46203C0.626796 2.39815 0.019043 3.6678 0.019043 4.99168V34.9418C0.019043 36.2656 0.626796 37.5353 1.7086 38.4714C2.79041 39.4075 4.25766 39.9334 5.78756 39.9334H150.231C151.761 39.9334 153.228 39.4075 154.31 38.4714C155.392 37.5353 156 36.2656 156 34.9418V4.99168C156 3.6678 155.392 2.39815 154.31 1.46203C153.228 0.525908 151.761 0 150.231 0Z" fill="#A6A6A6"/>
<path d="M47.4238 10.2338C47.4427 10.6026 47.386 10.9715 47.2573 11.3177C47.1285 11.6639 46.9304 11.9802 46.675 12.2471C46.3904 12.5388 46.0481 12.7679 45.6699 12.9198C45.2916 13.0716 44.8859 13.1429 44.4786 13.1289C44.0665 13.1334 43.6577 13.0555 43.2762 12.8999C42.8946 12.7443 42.548 12.514 42.2566 12.2227C41.9652 11.9313 41.7349 11.5847 41.5793 11.2031C41.4237 10.8216 41.3458 10.4128 41.3502 10.0008C41.3417 9.58381 41.4185 9.16946 41.5759 8.78319C41.7333 8.39693 41.9679 8.04689 42.2654 7.75456C42.5542 7.46259 42.8992 7.23238 43.2797 7.07792C43.6601 6.92346 44.068 6.84797 44.4786 6.85606C44.9017 6.85513 45.3206 6.94003 45.7099 7.10564C46.0702 7.25597 46.3896 7.4898 46.6418 7.78784L46.1093 8.30364C45.9063 8.0647 45.6498 7.87692 45.3607 7.75551C45.0717 7.6341 44.758 7.58247 44.4453 7.60481C44.1324 7.59997 43.8217 7.65916 43.5325 7.77872C43.2433 7.89829 42.9815 8.07571 42.7634 8.30009C42.5452 8.52448 42.3752 8.79109 42.2638 9.08355C42.1525 9.37602 42.102 9.68816 42.1157 10.0008C42.102 10.3135 42.1525 10.6256 42.2638 10.9181C42.3752 11.2105 42.5452 11.4771 42.7634 11.7015C42.9815 11.9259 43.2433 12.1033 43.5325 12.2229C43.8217 12.3425 44.1324 12.4017 44.4453 12.3968C44.7548 12.4049 45.0626 12.3484 45.3491 12.2309C45.6356 12.1135 45.8945 11.9376 46.1093 11.7146C46.4263 11.388 46.6102 10.9549 46.6251 10.5H44.4786V9.78451H47.3739C47.407 9.93198 47.4237 10.0826 47.4238 10.2338Z" fill="white" stroke="white" stroke-width="0.2" stroke-miterlimit="10"/>
<path d="M52.033 7.73703H49.3041V9.63387H51.7668V10.3493H49.3041V12.2628H52.033V12.9949H48.522V6.98828H52.033V7.73703Z" fill="white" stroke="white" stroke-width="0.2" stroke-miterlimit="10"/>
<path d="M55.2781 12.9949H54.5126V7.73703H52.8486V6.98828H56.9753V7.73703H55.3113L55.2781 12.9949Z" fill="white" stroke="white" stroke-width="0.2" stroke-miterlimit="10"/>
<path d="M59.937 12.9949V6.98828H60.7191V12.9949H59.937Z" fill="white" stroke="white" stroke-width="0.2" stroke-miterlimit="10"/>
<path d="M64.1306 12.9949H63.3652V7.73703H61.7012V6.98828H65.8279V7.73703H64.1639L64.1306 12.9949Z" fill="white" stroke="white" stroke-width="0.2" stroke-miterlimit="10"/>
<path d="M73.6151 12.2124C73.3404 12.5011 73.01 12.7311 72.6439 12.8884C72.2778 13.0457 71.8836 13.127 71.4851 13.1276C71.0751 13.1393 70.6672 13.0638 70.2885 12.9061C69.9099 12.7483 69.5691 12.5119 69.2887 12.2124C68.9967 11.9238 68.7665 11.5787 68.612 11.1983C68.4575 10.8178 68.382 10.41 68.3901 9.99946C68.3798 9.58617 68.4541 9.17514 68.6087 8.79168C68.7632 8.40823 68.9946 8.06047 69.2887 7.76985C69.5691 7.47042 69.9099 7.23399 70.2885 7.07622C70.6672 6.91845 71.0751 6.84295 71.4851 6.85471C71.8944 6.8491 72.3004 6.92741 72.6782 7.08481C73.0559 7.24221 73.3975 7.47535 73.6816 7.76985C73.9688 8.06469 74.1946 8.41358 74.346 8.7963C74.4974 9.17902 74.5713 9.58797 74.5635 9.99946C74.5623 10.4131 74.4776 10.8223 74.3147 11.2025C74.1517 11.5828 73.9138 11.9262 73.6151 12.2124ZM69.8211 11.7133C70.034 11.9388 70.2926 12.1163 70.5795 12.234C70.8665 12.3516 71.1752 12.4067 71.4851 12.3955C71.7947 12.4035 72.1025 12.347 72.389 12.2296C72.6755 12.1121 72.9344 11.9363 73.1491 11.7133C73.5794 11.2666 73.8182 10.6696 73.8147 10.0494C73.8147 9.42987 73.5764 8.8341 73.1491 8.38549C72.9329 8.16549 72.6734 7.99274 72.387 7.87818C72.1005 7.76362 71.7935 7.70973 71.4851 7.71993C71.1763 7.70553 70.868 7.75748 70.581 7.87229C70.2939 7.9871 70.0348 8.1621 69.8211 8.38549C69.3878 8.8302 69.1485 9.42853 69.1555 10.0494C69.1502 10.3571 69.2063 10.6627 69.3206 10.9484C69.4349 11.2341 69.6051 11.4942 69.8211 11.7133Z" fill="white" stroke="white" stroke-width="0.2" stroke-miterlimit="10"/>
<path d="M75.5786 12.9949V6.98828H76.4772L79.4058 11.6638V10.4991V6.98828H80.1712V12.9949H79.3725L76.344 8.10309V9.25118V12.9949H75.5786Z" fill="white" stroke="white" stroke-width="0.2" stroke-miterlimit="10"/>
<path d="M68.1571 21.747C67.3146 21.7503 66.492 22.0034 65.7933 22.4741C65.0946 22.9449 64.5512 23.6123 64.2319 24.3919C63.9125 25.1715 63.8315 26.0282 63.9991 26.8539C64.1667 27.6795 64.5753 28.4369 65.1734 29.0303C65.7715 29.6236 66.5321 30.0264 67.3591 30.1875C68.186 30.3486 69.0422 30.2609 69.8193 29.9355C70.5964 29.6101 71.2596 29.0615 71.7249 28.3592C72.1902 27.6569 72.4369 26.8324 72.4336 25.9899C72.4404 25.4281 72.3342 24.8705 72.1212 24.3505C71.9083 23.8305 71.593 23.3585 71.1941 22.9627C70.7952 22.5669 70.3208 22.2554 69.7991 22.0465C69.2773 21.8377 68.719 21.7358 68.1571 21.747ZM68.1571 28.569C67.6408 28.6057 67.1253 28.4862 66.6778 28.2261C66.2303 27.9659 65.8714 27.5772 65.6479 27.1103C65.4243 26.6435 65.3464 26.1202 65.4242 25.6085C65.5021 25.0967 65.7322 24.6203 66.0845 24.2411C66.4368 23.8619 66.8951 23.5974 67.3998 23.4822C67.9044 23.3669 68.4321 23.4062 68.9141 23.5948C69.3961 23.7834 69.8102 24.1128 70.1026 24.5399C70.3949 24.9671 70.552 25.4723 70.5533 25.9899C70.5689 26.3175 70.5189 26.6448 70.4063 26.9528C70.2938 27.2607 70.1208 27.5431 69.8976 27.7833C69.6744 28.0236 69.4055 28.2168 69.1066 28.3517C68.8077 28.4866 68.4849 28.5605 68.1571 28.569ZM58.8387 21.747C57.9985 21.7602 57.1809 22.0215 56.4888 22.4982C55.7967 22.9749 55.2611 23.6456 54.9494 24.426C54.6377 25.2064 54.5637 26.0615 54.7369 26.8838C54.9101 27.706 55.3226 28.4587 55.9226 29.0471C56.5225 29.6355 57.2831 30.0333 58.1087 30.1905C58.9342 30.3476 59.7878 30.2571 60.562 29.9303C61.3362 29.6035 61.9965 29.055 62.4597 28.3539C62.9229 27.6527 63.1683 26.8303 63.1651 25.9899C63.1746 25.4216 63.068 24.8574 62.8519 24.3317C62.6357 23.806 62.3145 23.33 61.9079 22.9328C61.5013 22.5356 61.0179 22.2255 60.4873 22.0216C59.9567 21.8177 59.3901 21.7243 58.8221 21.747H58.8387ZM58.8387 28.569C58.3228 28.6023 57.8088 28.4799 57.3634 28.2175C56.9179 27.9552 56.5616 27.565 56.3406 27.0977C56.1196 26.6303 56.0442 26.1073 56.1242 25.5966C56.2041 25.0859 56.4357 24.6109 56.7888 24.2334C57.142 23.8559 57.6005 23.5932 58.1048 23.4795C58.6091 23.3657 59.136 23.4062 59.617 23.5955C60.0981 23.7848 60.5111 24.1144 60.8026 24.5413C61.094 24.9683 61.2505 25.473 61.2515 25.9899C61.2672 26.3202 61.2162 26.6503 61.1015 26.9604C60.9869 27.2705 60.811 27.5544 60.5842 27.7951C60.3575 28.0358 60.0847 28.2283 59.7819 28.3613C59.4792 28.4942 59.1527 28.5649 58.8221 28.569H58.8387ZM47.7732 23.0449V24.8585H52.0829C52.0194 25.7017 51.6735 26.4989 51.1012 27.1214C50.6705 27.5639 50.1518 27.911 49.5785 28.1403C49.0052 28.3696 48.3902 28.476 47.7732 28.4525C46.4977 28.4525 45.2746 27.9459 44.3727 27.0441C43.4709 26.1423 42.9642 24.9192 42.9642 23.6439C42.9642 22.3685 43.4709 21.1454 44.3727 20.2436C45.2746 19.3418 46.4977 18.8352 47.7732 18.8352C48.3868 18.8154 48.9981 18.9202 49.5701 19.1433C50.1421 19.3664 50.6629 19.7031 51.1012 20.133L52.3824 18.8518C51.7845 18.2665 51.0769 17.805 50.3002 17.4938C49.5235 17.1826 48.693 17.0277 47.8564 17.0382C46.9207 16.923 45.9712 17.0078 45.0707 17.2871C44.1703 17.5664 43.3395 18.0338 42.6333 18.6583C41.9271 19.2828 41.3616 20.0502 40.9743 20.9097C40.587 21.7692 40.3867 22.7012 40.3867 23.6439C40.3867 24.5866 40.587 25.5185 40.9743 26.378C41.3616 27.2375 41.9271 28.0049 42.6333 28.6294C43.3395 29.2539 44.1703 29.7213 45.0707 30.0006C45.9712 30.2799 46.9207 30.3648 47.8564 30.2495C48.6695 30.2943 49.4831 30.1685 50.2448 29.8803C51.0065 29.592 51.6995 29.1477 52.2793 28.5758C52.8591 28.0039 53.3128 27.317 53.6114 26.5594C53.91 25.8017 54.0469 24.99 54.0131 24.1763C54.041 23.7997 54.041 23.4215 54.0131 23.0449H47.7732ZM93.1171 24.5257C92.8606 23.7562 92.3731 23.0845 91.721 22.6021C91.0688 22.1198 90.2838 21.8502 89.4729 21.8302C88.9275 21.834 88.3885 21.9482 87.8883 22.1657C87.3881 22.3833 86.9372 22.6998 86.5625 23.0962C86.1879 23.4925 85.8973 23.9606 85.7083 24.4722C85.5193 24.9838 85.4357 25.5284 85.4627 26.0731C85.4492 26.6334 85.549 27.1906 85.7562 27.7113C85.9634 28.232 86.2736 28.7055 86.6684 29.1033C87.0631 29.5012 87.5342 29.8151 88.0533 30.0264C88.5724 30.2376 89.1288 30.3418 89.6892 30.3327C90.3767 30.3065 91.0476 30.1143 91.6445 29.7724C92.2415 29.4304 92.7467 28.949 93.1171 28.3693L91.6694 27.4043C91.4493 27.7621 91.1409 28.0572 90.7736 28.2612C90.4064 28.4652 89.9928 28.5712 89.5727 28.569C89.1401 28.5865 88.7121 28.4737 88.3443 28.2453C87.9764 28.0169 87.6856 27.6833 87.5094 27.2878L93.2003 24.9251L93.1171 24.5257ZM87.3263 25.9567C87.3061 25.648 87.3476 25.3383 87.4483 25.0458C87.549 24.7533 87.707 24.4838 87.913 24.253C88.119 24.0222 88.369 23.8348 88.6482 23.7016C88.9275 23.5685 89.2304 23.4923 89.5395 23.4775C89.8617 23.4577 90.1828 23.5322 90.4634 23.6917C90.7441 23.8513 90.9723 24.089 91.1203 24.376L87.3263 25.9567ZM82.6339 29.9833H84.4976V17.4875H82.6339V29.9833ZM79.5721 22.6954C79.289 22.3883 78.9437 22.1448 78.5593 21.9813C78.1749 21.8178 77.76 21.7379 77.3424 21.747C76.2608 21.8147 75.2456 22.2921 74.5037 23.0819C73.7617 23.8717 73.3487 24.9146 73.3487 25.9983C73.3487 27.0819 73.7617 28.1248 74.5037 28.9146C75.2456 29.7045 76.2608 30.1818 77.3424 30.2495C77.7618 30.2598 78.1784 30.1788 78.5634 30.0122C78.9484 29.8455 79.2926 29.5972 79.5721 29.2845V29.9001C79.6196 30.2203 79.5952 30.547 79.5006 30.8565C79.406 31.1661 79.2437 31.4507 79.0254 31.6897C78.8071 31.9287 78.5383 32.1161 78.2386 32.2382C77.9388 32.3604 77.6156 32.4143 77.2925 32.3959C76.8279 32.381 76.378 32.2294 75.9991 31.9601C75.6202 31.6908 75.3292 31.3157 75.1625 30.8818L73.4985 31.5473C73.8036 32.2932 74.3246 32.9308 74.9947 33.3785C75.6648 33.8262 76.4533 34.0634 77.2592 34.0598C77.8318 34.0903 78.404 33.9935 78.9347 33.7762C79.4653 33.5589 79.9412 33.2266 80.3279 32.8033C80.7147 32.3799 81.0027 31.8761 81.1713 31.328C81.3398 30.78 81.3847 30.2014 81.3027 29.6339V21.9966H79.5721V22.6954ZM77.4256 28.569C76.792 28.4969 76.2071 28.1942 75.7825 27.7185C75.3579 27.2429 75.1232 26.6276 75.1232 25.9899C75.1232 25.3523 75.3579 24.737 75.7825 24.2614C76.2071 23.7857 76.792 23.483 77.4256 23.4109C77.7479 23.4254 78.0639 23.5049 78.3547 23.6445C78.6455 23.7841 78.9052 23.981 79.1181 24.2234C79.3309 24.4658 79.4927 24.7487 79.5936 25.0551C79.6945 25.3615 79.7325 25.6851 79.7052 26.0066C79.7301 26.3259 79.6903 26.6469 79.5881 26.9504C79.486 27.2539 79.3236 27.5336 79.1108 27.7729C78.8979 28.0122 78.6389 28.206 78.3494 28.3428C78.0598 28.4796 77.7456 28.5565 77.4256 28.569ZM101.803 17.4875H97.3436V29.9833H99.2073V25.2578H101.803C102.335 25.2926 102.868 25.218 103.369 25.0385C103.871 24.859 104.331 24.5785 104.719 24.2143C105.108 23.8501 105.418 23.41 105.63 22.9212C105.842 22.4324 105.951 21.9054 105.951 21.3726C105.951 20.8399 105.842 20.3128 105.63 19.8241C105.418 19.3353 105.108 18.8952 104.719 18.531C104.331 18.1668 103.871 17.8863 103.369 17.7068C102.868 17.5273 102.335 17.4526 101.803 17.4875ZM101.803 23.5107H99.2073V19.2345H101.853C102.15 19.2083 102.449 19.2442 102.731 19.3397C103.013 19.4353 103.272 19.5885 103.491 19.7895C103.711 19.9906 103.886 20.2352 104.006 20.5078C104.126 20.7803 104.188 21.0749 104.188 21.3726C104.188 21.6704 104.126 21.965 104.006 22.2375C103.886 22.51 103.711 22.7546 103.491 22.9557C103.272 23.1568 103.013 23.31 102.731 23.4056C102.449 23.5011 102.15 23.5369 101.853 23.5107H101.803ZM113.335 21.7137C112.654 21.6752 111.977 21.8356 111.386 22.1754C110.795 22.5152 110.316 23.0196 110.007 23.6272L111.671 24.3261C111.83 24.0293 112.072 23.7851 112.367 23.6227C112.663 23.4603 112.999 23.3868 113.335 23.4109C113.573 23.3881 113.814 23.4134 114.043 23.4851C114.272 23.5569 114.484 23.6738 114.667 23.8289C114.85 23.9839 115 24.1741 115.109 24.388C115.217 24.602 115.281 24.8355 115.298 25.0748V25.1913C114.697 24.8772 114.029 24.7117 113.351 24.7087C111.571 24.7087 109.757 25.6904 109.757 27.5207C109.774 27.907 109.868 28.286 110.034 28.6353C110.199 28.9847 110.433 29.2973 110.722 29.5547C111.01 29.8122 111.347 30.0092 111.713 30.1343C112.079 30.2593 112.466 30.3098 112.852 30.2828C113.323 30.3115 113.793 30.2122 114.212 29.9954C114.631 29.7786 114.983 29.4524 115.232 29.0515V30.0166H117.029V25.1746C117.034 24.7029 116.942 24.2352 116.759 23.8006C116.575 23.3661 116.304 22.9741 115.962 22.6492C115.62 22.3243 115.214 22.0736 114.771 21.9126C114.327 21.7516 113.855 21.6839 113.385 21.7137H113.335ZM113.118 28.569C112.503 28.569 111.654 28.2695 111.654 27.5041C111.654 26.7387 112.719 26.173 113.634 26.173C114.216 26.1639 114.789 26.3073 115.298 26.5889C115.232 27.1166 114.983 27.6043 114.593 27.9664C114.204 28.3284 113.699 28.5418 113.168 28.569H113.118ZM123.701 21.9966L121.555 27.4209L119.342 21.9966H117.312L120.64 29.5673L118.743 33.777H120.689L125.815 21.9966H123.701ZM106.895 29.9833H108.759V17.4875H106.945L106.895 29.9833Z" fill="white"/>
<path d="M10.4497 7.53827C10.2725 7.7241 10.1341 7.94344 10.0426 8.18344C9.95118 8.42344 9.90857 8.67927 9.91727 8.93594V31.0491C9.88611 31.5627 10.0528 32.0688 10.3832 32.4634L22.78 20.0674V19.7845L10.5163 7.45508L10.4497 7.53827Z" fill="url(#paint0_linear_3482_403715)"/>
<path d="M27.0398 24.277L22.9131 20.1339V19.8511L27.0398 15.7246H27.123L32.0151 18.5033C33.4129 19.302 33.4129 20.5998 32.0151 21.3818L27.123 24.1606L27.0398 24.277Z" fill="url(#paint1_linear_3482_403715)"/>
<path d="M27.1229 24.2097L22.913 20L10.4497 32.4626C10.7435 32.6947 11.107 32.821 11.4814 32.821C11.8558 32.821 12.2193 32.6947 12.5131 32.4626L27.1229 24.1431" fill="url(#paint2_linear_3482_403715)"/>
<path d="M27.1229 15.7736L12.5131 7.4541C12.2193 7.22197 11.8558 7.0957 11.4814 7.0957C11.107 7.0957 10.7435 7.22197 10.4497 7.4541L22.913 19.9167L27.1229 15.7736Z" fill="url(#paint3_linear_3482_403715)"/>
<path opacity="0.2" d="M27.0401 24.127L12.5134 32.4464C12.2254 32.6624 11.875 32.7792 11.515 32.7792C11.155 32.7792 10.8046 32.6624 10.5166 32.4464V32.5296C10.8046 32.7456 11.155 32.8624 11.515 32.8624C11.875 32.8624 12.2254 32.7456 12.5134 32.5296L27.1233 24.2101L27.0401 24.127Z" fill="black"/>
<path opacity="0.12" d="M10.4497 32.3127C10.0922 31.9302 9.90079 31.4217 9.91727 30.8984V31.0482C9.88611 31.5618 10.0528 32.0679 10.3832 32.4625V32.3793L10.4497 32.3127Z" fill="black"/>
<path opacity="0.12" d="M32.0154 21.2978L27.0234 24.1265L27.1066 24.2097L31.9988 21.4309C32.2854 21.3077 32.5337 21.11 32.7181 20.8584C32.9024 20.6068 33.016 20.3104 33.0471 20C32.987 20.2813 32.8625 20.5448 32.6835 20.77C32.5046 20.9951 32.2759 21.1758 32.0154 21.2978Z" fill="black"/>
<path opacity="0.25" d="M12.5133 7.62099L32.0154 18.7025C32.2812 18.8192 32.5152 18.9979 32.6976 19.2238C32.88 19.4496 33.0056 19.7159 33.0637 20.0004C33.0354 19.687 32.9232 19.3872 32.7386 19.1324C32.5541 18.8776 32.3042 18.6773 32.0154 18.5528L12.5133 7.47124C11.1156 6.67257 9.91748 7.33812 9.91748 8.93546V9.08521C9.91748 7.48787 11.1156 6.82232 12.5133 7.62099Z" fill="white"/>
<defs>
<linearGradient id="paint0_linear_3482_403715" x1="21.7982" y1="8.703" x2="5.02616" y2="25.4927" gradientUnits="userSpaceOnUse">
<stop stop-color="#00A0FF"/>
<stop offset="0.01" stop-color="#00A1FF"/>
<stop offset="0.26" stop-color="#00BEFF"/>
<stop offset="0.51" stop-color="#00D2FF"/>
<stop offset="0.76" stop-color="#00DFFF"/>
<stop offset="1" stop-color="#00E3FF"/>
</linearGradient>
<linearGradient id="paint1_linear_3482_403715" x1="33.8455" y1="20.0008" x2="9.65104" y2="20.0008" gradientUnits="userSpaceOnUse">
<stop stop-color="#FFE000"/>
<stop offset="0.41" stop-color="#FFBD00"/>
<stop offset="0.78" stop-color="#FFA500"/>
<stop offset="1" stop-color="#FF9C00"/>
</linearGradient>
<linearGradient id="paint2_linear_3482_403715" x1="24.8266" y1="22.2795" x2="2.08121" y2="45.043" gradientUnits="userSpaceOnUse">
<stop stop-color="#FF3A44"/>
<stop offset="1" stop-color="#C31162"/>
</linearGradient>
<linearGradient id="paint3_linear_3482_403715" x1="7.30475" y1="0.166249" x2="17.4711" y2="10.3333" gradientUnits="userSpaceOnUse">
<stop stop-color="#32A071"/>
<stop offset="0.07" stop-color="#2DA771"/>
<stop offset="0.48" stop-color="#15CF74"/>
<stop offset="0.8" stop-color="#06E775"/>
<stop offset="1" stop-color="#00F076"/>
</linearGradient>
</defs>
</svg>
